<svg xmlns="http://www.w3.org/2000/svg" viewBox="0 0 640 360" role="img" aria-label="Tactical vessel silhouette">
  <defs>
    <linearGradient id="sea" x1="0" y1="0" x2="0" y2="1"><stop stop-color="#071c2a"/><stop offset="1" stop-color="#020a11"/></linearGradient>
    <linearGradient id="hull" x1="0" y1="0" x2="1" y2="0"><stop stop-color="#0b5268"/><stop offset="1" stop-color="#052b3b"/></linearGradient>
  </defs>
  <rect width="640" height="360" fill="url(#sea)"/>
  <g opacity=".18" stroke="#00eaff"><path d="M0 72h640M0 144h640M0 216h640M0 288h640M80 0v360M160 0v360M240 0v360M320 0v360M400 0v360M480 0v360M560 0v360"/></g>
  <path d="M48 252h516l42-60H196l-34-35H91l22 35H33z" fill="url(#hull)" stroke="#1bdcff" stroke-width="3"/>
  <path d="M208 192v-59h131v59M233 133V99h76v34M271 99V67M271 67h53" fill="none" stroke="#86eaff" stroke-width="5"/>
  <path d="M80 278c70-14 120 14 190 0s120 14 190 0 120 14 180 0" fill="none" stroke="#00bcd4" stroke-width="3" opacity=".8"/>
  <text x="32" y="42" fill="#78dff3" font-family="monospace" font-size="18">VESSEL INTELLIGENCE // LOCAL FIXTURE</text>
</svg>
